<svg width="120" height="26" viewBox="0 0 120 26" fill="none" xmlns="http://www.w3.org/2000/svg">
<path d="M6.55974 19.4858C5.58975 19.4858 4.66086 19.3337 3.77308 19.0295C2.8853 18.7172 2.10849 18.2733 1.44265 17.6979C0.776811 17.1142 0.295928 16.4196 0 15.614L3.47715 14.3317C3.55936 14.5701 3.7402 14.8002 4.01969 15.0222C4.3074 15.2441 4.66909 15.4291 5.10476 15.577C5.54043 15.7168 6.02542 15.7867 6.55974 15.7867C7.05295 15.7867 7.51739 15.7168 7.95306 15.577C8.38874 15.4291 8.74221 15.2277 9.01347 14.9729C9.28474 14.718 9.42037 14.4221 9.42037 14.0851C9.42037 13.7398 9.27652 13.4562 8.98881 13.2343C8.70932 13.0041 8.34763 12.8233 7.90374 12.6917C7.46807 12.552 7.02007 12.4492 6.55974 12.3835C5.31026 12.2026 4.1882 11.9067 3.19356 11.4957C2.20713 11.0765 1.42621 10.5011 0.850793 9.76946C0.283598 9.03786 0 8.10897 0 6.9828C0 5.90595 0.304148 4.96474 0.912445 4.15916C1.52074 3.34535 2.32221 2.7124 3.31686 2.26028C4.31973 1.80817 5.40069 1.58211 6.55974 1.58211C7.52972 1.58211 8.45861 1.7383 9.34639 2.05067C10.2424 2.35482 11.0233 2.79871 11.6892 3.38234C12.355 3.96598 12.8318 4.6647 13.1195 5.4785L9.64232 6.73619C9.56012 6.49781 9.37516 6.27175 9.08745 6.05803C8.80797 5.83608 8.45039 5.65523 8.01472 5.51549C7.57904 5.37575 7.09405 5.30588 6.55974 5.30588C6.08296 5.29766 5.62674 5.36753 5.19107 5.51549C4.7554 5.66345 4.39782 5.86485 4.11833 6.11968C3.83884 6.3745 3.6991 6.66221 3.6991 6.9828C3.6991 7.42669 3.83062 7.75961 4.09367 7.98156C4.35672 8.19528 4.70197 8.34736 5.12942 8.43778C5.56509 8.5282 6.04186 8.6104 6.55974 8.68439C7.74345 8.85701 8.83263 9.16527 9.82727 9.60916C10.8219 10.0531 11.6193 10.6449 12.2194 11.3847C12.8194 12.1245 13.1195 13.0247 13.1195 14.0851C13.1195 15.1619 12.8153 16.1072 12.207 16.921C11.607 17.7266 10.8096 18.3555 9.81494 18.8076C8.8203 19.2597 7.73523 19.4858 6.55974 19.4858Z" fill="#003D9F"/>
<path d="M27.5912 19.1652H23.3249L20.8589 14.9235L19.5272 16.5018V19.1652H15.8281V0.66967H19.5272V10.7559L22.8071 6.83484H27.6406L23.3989 11.9149L27.5912 19.1652Z" fill="#003D9F"/>
<path d="M37.3395 6.83484H41.2852L34.5282 25.3303H30.6072L32.8266 19.1652L28.3877 6.83484H32.432L34.6762 14.1097L37.3395 6.83484Z" fill="#003D9F"/>
<path d="M50.0531 19.4858C49.0831 19.4858 48.1542 19.3337 47.2664 19.0295C46.3786 18.7172 45.6018 18.2733 44.936 17.6979C44.2701 17.1142 43.7892 16.4196 43.4933 15.614L46.9705 14.3317C47.0527 14.5701 47.2335 14.8002 47.513 15.0222C47.8007 15.2441 48.1624 15.4291 48.5981 15.577C49.0337 15.7168 49.5187 15.7867 50.0531 15.7867C50.5463 15.7867 51.0107 15.7168 51.4464 15.577C51.882 15.4291 52.2355 15.2277 52.5068 14.9729C52.7781 14.718 52.9137 14.4221 52.9137 14.0851C52.9137 13.7398 52.7698 13.4562 52.4821 13.2343C52.2026 13.0041 51.841 12.8233 51.3971 12.6917C50.9614 12.552 50.5134 12.4492 50.0531 12.3835C48.8036 12.2026 47.6815 11.9067 46.6869 11.4957C45.7004 11.0765 44.9195 10.5011 44.3441 9.76946C43.7769 9.03786 43.4933 8.10897 43.4933 6.9828C43.4933 5.90595 43.7975 4.96474 44.4058 4.15916C45.0141 3.34535 45.8155 2.7124 46.8102 2.26028C47.813 1.80817 48.894 1.58211 50.0531 1.58211C51.023 1.58211 51.9519 1.7383 52.8397 2.05067C53.7357 2.35482 54.5166 2.79871 55.1825 3.38234C55.8483 3.96598 56.3251 4.6647 56.6128 5.4785L53.1356 6.73619C53.0534 6.49781 52.8685 6.27175 52.5808 6.05803C52.3013 5.83608 51.9437 5.65523 51.508 5.51549C51.0724 5.37575 50.5874 5.30588 50.0531 5.30588C49.5763 5.29766 49.1201 5.36753 48.6844 5.51549C48.2487 5.66345 47.8911 5.86485 47.6116 6.11968C47.3322 6.3745 47.1924 6.66221 47.1924 6.9828C47.1924 7.42669 47.3239 7.75961 47.587 7.98156C47.85 8.19528 48.1953 8.34736 48.6227 8.43778C49.0584 8.5282 49.5352 8.6104 50.0531 8.68439C51.2368 8.85701 52.3259 9.16527 53.3206 9.60916C54.3152 10.0531 55.1126 10.6449 55.7127 11.3847C56.3128 12.1245 56.6128 13.0247 56.6128 14.0851C56.6128 15.1619 56.3086 16.1072 55.7003 16.921C55.1003 17.7266 54.3029 18.3555 53.3083 18.8076C52.3136 19.2597 51.2285 19.4858 50.0531 19.4858Z" fill="#003D9F"/>
<path d="M65.844 15.1208L69.1732 16.921C68.606 17.6937 67.8949 18.3144 67.04 18.7829C66.1851 19.2515 65.2521 19.4858 64.241 19.4858C63.1066 19.4858 62.0709 19.1939 61.1338 18.6103C60.2049 18.0267 59.461 17.2457 58.902 16.2675C58.3512 15.2811 58.0759 14.1919 58.0759 13C58.0759 12.0958 58.2362 11.2532 58.5567 10.4723C58.8773 9.68314 59.3171 8.99264 59.8761 8.40079C60.4433 7.80071 61.1009 7.33216 61.8489 6.99513C62.597 6.6581 63.3943 6.48959 64.241 6.48959C65.2521 6.48959 66.1851 6.72386 67.04 7.19242C67.8949 7.66097 68.606 8.28982 69.1732 9.07896L65.844 10.8792C65.622 10.6572 65.3713 10.4887 65.0918 10.3736C64.8205 10.2503 64.537 10.1887 64.241 10.1887C63.7725 10.1887 63.3532 10.3202 62.9833 10.5833C62.6134 10.8463 62.3175 11.1916 62.0955 11.619C61.8818 12.0465 61.775 12.5068 61.775 13C61.775 13.485 61.8818 13.9412 62.0955 14.3687C62.3175 14.7879 62.6134 15.129 62.9833 15.3921C63.3532 15.6551 63.7725 15.7867 64.241 15.7867C64.537 15.7867 64.8205 15.7291 65.0918 15.614C65.3713 15.4907 65.622 15.3263 65.844 15.1208Z" fill="#003D9F"/>
<path d="M96.8257 25.3303H93.1266V6.83484H96.8257V7.99389C97.2121 7.55822 97.6601 7.20475 98.1697 6.93348C98.6794 6.65399 99.2671 6.51425 99.933 6.51425C100.837 6.51425 101.68 6.68276 102.461 7.01979C103.242 7.35682 103.928 7.82537 104.52 8.42545C105.12 9.01731 105.584 9.70369 105.913 10.4846C106.25 11.2655 106.419 12.104 106.419 13C106.419 13.896 106.25 14.7386 105.913 15.5277C105.584 16.3169 105.12 17.0115 104.52 17.6115C103.928 18.2034 103.242 18.6678 102.461 19.0049C101.68 19.3419 100.837 19.5104 99.933 19.5104C99.2671 19.5104 98.6794 19.3707 98.1697 19.0912C97.6601 18.8117 97.2121 18.4582 96.8257 18.0308V25.3303ZM99.8836 10.0654C99.3822 10.0654 98.9219 10.201 98.5026 10.4723C98.0916 10.7353 97.7628 11.0888 97.5162 11.5327C97.2696 11.9766 97.1463 12.4657 97.1463 13C97.1463 13.5425 97.2696 14.0358 97.5162 14.4796C97.7628 14.9235 98.0916 15.277 98.5026 15.5401C98.9219 15.8031 99.3822 15.9346 99.8836 15.9346C100.393 15.9346 100.858 15.8031 101.277 15.5401C101.696 15.277 102.029 14.9235 102.276 14.4796C102.522 14.0358 102.646 13.5425 102.646 13C102.646 12.4657 102.522 11.9766 102.276 11.5327C102.029 11.0888 101.696 10.7353 101.277 10.4723C100.858 10.201 100.393 10.0654 99.8836 10.0654Z" fill="#003D9F"/>
<path d="M113.82 19.4858C112.686 19.4858 111.65 19.1939 110.713 18.6103C109.784 18.0267 109.04 17.2416 108.481 16.2552C107.931 15.2688 107.655 14.1796 107.655 12.9877C107.655 12.0917 107.816 11.2532 108.136 10.4723C108.457 9.68314 108.896 8.99264 109.455 8.40079C110.023 7.80071 110.68 7.33216 111.428 6.99513C112.176 6.6581 112.974 6.48959 113.82 6.48959C114.807 6.48959 115.707 6.70742 116.521 7.1431C117.343 7.57055 118.033 8.15418 118.592 8.894C119.159 9.6256 119.562 10.4517 119.801 11.3724C120.039 12.2931 120.064 13.2425 119.875 14.2207H111.65C111.765 14.5084 111.917 14.7715 112.106 15.0098C112.304 15.24 112.542 15.425 112.822 15.5647C113.109 15.7045 113.442 15.7784 113.82 15.7867C114.182 15.7949 114.515 15.7168 114.819 15.5524C115.132 15.388 115.403 15.166 115.633 14.8865L119.406 15.762C118.905 16.8553 118.157 17.7513 117.162 18.45C116.167 19.1405 115.053 19.4858 113.82 19.4858ZM111.515 11.508H116.138C116.023 11.1546 115.851 10.8422 115.621 10.5709C115.39 10.2997 115.119 10.0859 114.807 9.92975C114.503 9.77357 114.174 9.69547 113.82 9.69547C113.475 9.69547 113.146 9.77357 112.834 9.92975C112.53 10.0859 112.263 10.2997 112.032 10.5709C111.811 10.8422 111.638 11.1546 111.515 11.508Z" fill="#003D9F"/>
<path d="M81.8082 18.4689C84.769 17.9015 86.7093 15.0413 86.1419 12.0805C85.5745 9.11968 82.7143 7.17941 79.7535 7.74679C76.7926 8.31418 74.8524 11.1744 75.4197 14.1352C75.9871 17.096 78.8473 19.0363 81.8082 18.4689Z" fill="#E6C705"/>
<path d="M80.2034 5.17928C80.2034 5.50011 80.4635 5.76023 80.7843 5.76023C81.1052 5.76023 81.3653 5.50011 81.3653 5.17928V2.71852C81.3653 2.39769 81.1052 2.13757 80.7843 2.13757C80.4635 2.13757 80.2034 2.39769 80.2034 2.71852V5.17928Z" fill="#E6C705"/>
<path d="M80.2034 21.0379V23.4987C80.2034 23.8196 80.4635 24.0797 80.7843 24.0797C81.1052 24.0797 81.3653 23.8196 81.3653 23.4987V21.0379C81.3653 20.717 81.1052 20.4569 80.7843 20.4569C80.4635 20.457 80.2034 20.7171 80.2034 21.0379Z" fill="#E6C705"/>
<path d="M76.8202 6.82264C76.9187 6.82264 77.0187 6.79751 77.1101 6.74473C77.388 6.58432 77.4832 6.22896 77.3228 5.95111L76.0924 3.81993C75.932 3.54207 75.5766 3.44695 75.2988 3.60726C75.021 3.76767 74.9258 4.12303 75.0862 4.40078L76.3166 6.53195C76.4241 6.71844 76.6193 6.82264 76.8202 6.82264Z" fill="#E6C705"/>
<path d="M84.4584 19.4725C84.1806 19.6329 84.0853 19.9883 84.2458 20.266L85.4762 22.3972C85.5838 22.5836 85.7791 22.6878 85.9798 22.6878C86.0784 22.6878 86.1783 22.6627 86.2698 22.6099C86.5477 22.4495 86.6429 22.0941 86.4825 21.8163L85.252 19.6851C85.0916 19.4073 84.7363 19.3121 84.4584 19.4725Z" fill="#E6C705"/>
<path d="M71.283 7.62303C71.1225 7.90089 71.2178 8.25624 71.4956 8.41666L73.6268 9.64709C73.7183 9.69987 73.8182 9.725 73.9167 9.725C74.1174 9.725 74.3128 9.62081 74.4204 9.43442C74.5808 9.15656 74.4856 8.80122 74.2077 8.6409L72.0766 7.41047C71.7987 7.25006 71.4434 7.34518 71.283 7.62303Z" fill="#E6C705"/>
<path d="M90.0728 17.8006L87.9417 16.5701C87.6639 16.4098 87.3086 16.505 87.148 16.7828C86.9876 17.0607 87.0828 17.4159 87.3607 17.5764L89.4919 18.8069C89.5834 18.8596 89.6833 18.8848 89.7818 18.8848C89.9826 18.8848 90.1779 18.7806 90.2855 18.5942C90.4459 18.3162 90.3507 17.961 90.0728 17.8006Z" fill="#E6C705"/>
<path d="M73.4358 13.1086C73.4358 12.7878 73.1757 12.5277 72.8549 12.5277H70.3941C70.0733 12.5277 69.8132 12.7878 69.8132 13.1086C69.8132 13.4294 70.0733 13.6896 70.3941 13.6896H72.8549C73.1757 13.6896 73.4358 13.4294 73.4358 13.1086Z" fill="#E6C705"/>
<path d="M91.1745 12.5277H88.7136C88.3928 12.5277 88.1326 12.7878 88.1326 13.1086C88.1326 13.4294 88.3928 13.6896 88.7136 13.6896H91.1745C91.4953 13.6896 91.7554 13.4294 91.7554 13.1086C91.7554 12.7878 91.4953 12.5277 91.1745 12.5277Z" fill="#E6C705"/>
<path d="M73.6268 16.5701L71.4956 17.8006C71.2178 17.961 71.1225 18.3163 71.283 18.5942C71.3906 18.7806 71.5858 18.8848 71.7866 18.8848C71.8852 18.8848 71.9851 18.8596 72.0766 18.8069L74.2077 17.5764C74.4856 17.416 74.5808 17.0607 74.4204 16.7828C74.2599 16.5048 73.9045 16.4097 73.6268 16.5701Z" fill="#E6C705"/>
<path d="M89.492 7.41047L87.3608 8.6409C87.083 8.80132 86.9877 9.15667 87.1481 9.43442C87.2558 9.62081 87.451 9.725 87.6518 9.725C87.7504 9.725 87.8503 9.69987 87.9418 9.64709L90.0729 8.41666C90.3508 8.25624 90.446 7.90089 90.2856 7.62303C90.1251 7.34518 89.7697 7.25006 89.492 7.41047Z" fill="#E6C705"/>
<path d="M76.3165 19.6851L75.0861 21.8162C74.9257 22.0941 75.0209 22.4495 75.2988 22.6099C75.3902 22.6626 75.4902 22.6878 75.5887 22.6878C75.7894 22.6878 75.9848 22.5836 76.0924 22.3972L77.3228 20.266C77.4832 19.9882 77.388 19.6328 77.1102 19.4725C76.8323 19.3121 76.477 19.4072 76.3165 19.6851Z" fill="#E6C705"/>
<path d="M84.4584 6.74473C84.5499 6.79751 84.6498 6.82264 84.7484 6.82264C84.9491 6.82264 85.1444 6.71845 85.252 6.53206L86.4825 4.40089C86.6429 4.12303 86.5477 3.76778 86.2698 3.60737C85.9921 3.44706 85.6366 3.54218 85.4763 3.82004L84.2458 5.95121C84.0854 6.22896 84.1806 6.58421 84.4584 6.74473Z" fill="#E6C705"/>
</svg>
