<svg width="90" height="86" viewBox="0 0 90 86" fill="none" xmlns="http://www.w3.org/2000/svg">
<path d="M0.240534 33.7355C0.257925 32.6362 0.356457 31.5466 0.514814 30.4606C0.663713 29.4156 0.985688 28.4035 1.34451 27.4152C1.70699 26.4077 2.21154 25.4707 2.82422 24.5938C3.83875 23.1423 5.07757 21.8751 6.57968 20.9232C7.40991 20.395 8.30582 19.9798 9.20807 19.5901C9.68558 19.3845 10.1941 19.2661 10.707 19.1675C11.1464 18.9521 11.6047 18.7572 12.0926 18.6C12.6741 18.4124 13.2801 18.3141 13.8662 18.2192C14.135 18.1756 14.4119 18.1453 14.6883 18.1292C14.9474 18.1142 15.2066 18.1118 15.4614 18.1225C16.7045 18.1765 17.7422 18.2977 18.7268 18.5048C19.7405 18.7151 20.7681 19.1147 21.5938 19.4354C22.0581 19.6154 22.5189 19.8123 22.9796 20.0091C22.9808 19.8946 22.9906 19.7753 23.0028 19.6581C23.044 19.2206 23.0924 18.7803 23.1599 18.3437L23.218 17.9574C23.3367 17.1659 23.4592 16.3476 23.6554 15.5619C23.6966 15.3996 23.7345 15.2357 23.7727 15.0716C23.8456 14.7552 23.9212 14.4278 24.0213 14.1166L24.212 13.5253L24.5217 12.5662C25.4167 9.78049 26.9859 7.20959 28.9405 5.3273C30.7325 3.60062 33.0938 2.23917 35.9594 1.2814C37.1271 0.891761 38.409 0.589076 40.1158 0.299517C40.8728 0.172282 41.6613 0.0843457 42.4595 0.0382725C43.146 -0.00139315 43.8414 -0.0102154 44.5264 0.0117532C45.8808 0.0523343 47.2449 0.283318 48.5801 0.697976C50.0779 1.16542 51.3662 1.76104 52.5186 2.51805C53.5341 3.18473 54.4928 3.98501 55.449 4.96445C56.4928 6.03298 57.3457 7.11681 57.9843 8.18535L58.1905 8.5289C58.4102 8.89261 58.6372 9.26853 58.8322 9.65329L58.8725 9.73322C59.199 10.3798 59.5363 11.0482 59.8317 11.7281C60.355 12.9327 60.7825 14.1474 61.1316 15.1765C61.5652 16.4562 61.9082 17.7649 62.1587 18.7617C62.3015 19.3384 62.4323 19.9178 62.5611 20.5L62.6526 20.9351C62.7377 21.3485 62.8259 21.776 62.955 22.1812L63.0933 22.1699C63.5 22.1464 63.911 22.0899 64.3082 22.035L64.3778 22.0256L64.4489 22.0158C64.8544 21.9606 65.2739 21.9035 65.6886 21.8794L65.8359 21.8724C66.7513 21.8379 67.5322 21.8669 68.2931 21.9637C69.4782 22.1156 70.7121 22.5446 71.8612 23.2037C72.8238 23.7584 73.6882 24.5441 74.5047 25.6059C75.0533 26.3199 75.4969 27.2218 75.9006 28.4438C76.0211 28.8054 76.1111 29.1819 76.1987 29.5462L76.2313 29.6826C76.2615 29.8107 76.2888 29.9395 76.3156 30.068C76.3565 30.2617 76.3974 30.4555 76.4487 30.6471C76.8136 30.6608 77.156 30.6648 77.498 30.6688C77.9307 30.6739 78.3633 30.6788 78.7947 30.7017C79.8453 30.7584 80.6602 30.8823 81.3598 31.0914C82.1605 31.3315 83.2055 31.6766 84.1883 32.2194C85.129 32.7433 86.0333 33.4923 86.9536 34.5096C88.5512 36.2735 89.89 39.0513 88.8563 41.5588C88.664 42.0256 88.3856 42.4861 88.0048 42.9666C87.7443 43.2949 87.4242 43.571 87.1148 43.8383L86.982 43.9533C86.7489 44.1569 86.5002 44.3271 86.2216 44.4733C86.1872 44.4913 86.1508 44.5081 86.1157 44.5258C86.0449 44.6192 85.977 44.714 85.8952 44.8019C85.5797 45.1433 85.1869 45.4204 84.7863 45.648C84.2087 45.9785 83.5859 46.2262 82.9501 46.4126C82.111 46.6583 81.2503 46.8197 80.3923 46.9881C79.4168 47.18 78.4407 47.3552 77.4579 47.5047C75.6318 47.7836 73.7891 47.9422 71.9474 48.0725C70.0133 48.2104 68.0837 48.305 66.1422 48.2745C65.3782 48.2623 64.6143 48.2367 63.8506 48.2104C63.0389 48.2858 62.227 48.3541 61.416 48.4197C59.509 48.5751 57.5973 48.6925 55.686 48.8124C51.9035 49.0449 48.1173 49.178 44.3301 49.3348C40.5409 49.4916 36.7558 49.3204 32.9662 49.1849C31.0247 49.1138 29.0808 49.0407 27.1415 48.9223C25.2809 48.8109 23.4197 48.7282 21.5593 48.6192C17.9223 48.4084 14.346 47.6902 10.8862 46.5563C10.2903 46.3626 9.70258 46.1469 9.12895 45.89C9.042 45.8512 8.96214 45.799 8.87762 45.7551C8.43428 45.8979 7.94061 45.879 7.51009 45.6459C6.55323 45.1305 5.66194 44.5166 4.81004 43.8405C4.07531 43.2577 3.4025 42.5978 2.84046 41.8435C2.2708 41.0752 1.85517 40.1793 1.44448 39.3189C1.26049 38.9326 1.07167 38.5417 0.934057 38.1338C0.730847 37.5394 0.589334 36.9389 0.480101 36.3223C0.328456 35.4679 0.223752 34.6018 0.240534 33.7355Z" fill="#68A3CE"/>
<path d="M76 62.5294C76 63.8939 74.8807 65 73.5 65C72.1193 65 71 63.8939 71 62.5294C71 61.1649 72.4286 54.4118 73.5 53C74.2143 54.0588 76 61.1649 76 62.5294Z" fill="#95C9E3"/>
<path d="M61 83.5294C61 84.8939 59.8807 86 58.5 86C57.1193 86 56 84.8939 56 83.5294C56 82.1649 57.4286 75.4118 58.5 74C59.2143 75.0588 61 82.1649 61 83.5294Z" fill="#95C9E3"/>
<path d="M57 63.5294C57 64.8939 55.8807 66 54.5 66C53.1193 66 52 64.8939 52 63.5294C52 62.1649 53.4286 55.4118 54.5 54C55.2143 55.0588 57 62.1649 57 63.5294Z" fill="#95C9E3"/>
<path d="M43 71.5294C43 72.8939 41.8807 74 40.5 74C39.1193 74 38 72.8939 38 71.5294C38 70.1649 39.4286 63.4118 40.5 62C41.2143 63.0588 43 70.1649 43 71.5294Z" fill="#95C9E3"/>
<path d="M24 62.5294C24 63.8939 22.8807 65 21.5 65C20.1193 65 19 63.8939 19 62.5294C19 61.1649 20.4286 54.4118 21.5 53C22.2143 54.0588 24 61.1649 24 62.5294Z" fill="#95C9E3"/>
<path d="M29 80.5294C29 81.8939 27.8807 83 26.5 83C25.1193 83 24 81.8939 24 80.5294C24 79.1649 25.4286 72.4118 26.5 71C27.2143 72.0588 29 79.1649 29 80.5294Z" fill="#95C9E3"/>
</svg>
